<mxfile host="65bd71144e">
    <diagram id="X56hWuXkz_R3zDNtnNjE" name="ページ1">
        <mxGraphModel dx="1066" dy="619" grid="1" gridSize="6" guides="1" tooltips="1" connect="1" arrows="1" fold="1" page="1" pageScale="1" pageWidth="827" pageHeight="1169" math="0" shadow="0">
            <root>
                <mxCell id="0"/>
                <mxCell id="1" parent="0"/>
                <mxCell id="2" value="＜フロントエンド＞&lt;br&gt;・ユーザインタフェースを提供する&lt;br&gt;・Webブラウザ(クライアント側のPC)で実行される&lt;br&gt;&lt;br&gt;言語&lt;br&gt;HTML : 文字や画像などのコンテンツを表示させる&lt;br&gt;CSS : 大きさ、色、レイアウトなどの装飾をする&lt;br&gt;Javascript : 動的な動作を実現する" style="whiteSpace=wrap;html=1;align=left;verticalAlign=top;" parent="1" vertex="1">
                    <mxGeometry x="24" y="24" width="294" height="138" as="geometry"/>
                </mxCell>
                <mxCell id="3" value="＜Webサーバ＞&lt;br&gt;・クライアントからリクエストを受け取り、&lt;br&gt;　適切なWebアプリケーションへ転送する&lt;br&gt;・静的ファイルの配信、HTTPSのセットアップ、&lt;br&gt;　負荷分散などの機能を提供&lt;br&gt;・必要な処理を行ってからWebAPIやバックエンドにリクエストを送信する&lt;br&gt;&lt;br&gt;有名どころ&lt;br&gt;Nginx&lt;br&gt;Appach" style="whiteSpace=wrap;html=1;align=left;verticalAlign=top;" parent="1" vertex="1">
                    <mxGeometry x="336" y="24" width="456" height="162" as="geometry"/>
                </mxCell>
                <mxCell id="4" value="バックエンド&lt;br&gt;OkatronServer" style="whiteSpace=wrap;html=1;" parent="1" vertex="1">
                    <mxGeometry x="336" y="414" width="120" height="72" as="geometry"/>
                </mxCell>
                <mxCell id="8" value="＜WebAPI＞&lt;br&gt;・Webアプリケーションから外部のプログラムにアクセスするための&lt;br&gt;　インタフェース&lt;br&gt;&lt;br&gt;FastAPI&lt;br&gt;・Webフレームワーク&lt;br&gt;Uvicorn&lt;br&gt;ASGIサーバ&lt;br&gt;&lt;br&gt;上記の両者を使ってWebサーバとWebAPIの機能を両方備えたアプリケーションを&lt;br&gt;作成することができる" style="whiteSpace=wrap;html=1;align=left;verticalAlign=top;" vertex="1" parent="1">
                    <mxGeometry x="336" y="216" width="456" height="186" as="geometry"/>
                </mxCell>
            </root>
        </mxGraphModel>
    </diagram>
    <diagram id="zQk6bGxmD2O_SKdqkDCD" name="ページ2">
        <mxGraphModel dx="1421" dy="825" grid="1" gridSize="6" guides="1" tooltips="1" connect="1" arrows="1" fold="1" page="1" pageScale="1" pageWidth="827" pageHeight="1169" math="0" shadow="0">
            <root>
                <mxCell id="0"/>
                <mxCell id="1" parent="0"/>
                <mxCell id="VoaXFm8t6S9eDuqUZ-T1-1" value="OkatronServer" style="whiteSpace=wrap;html=1;" vertex="1" parent="1">
                    <mxGeometry x="240" y="24" width="120" height="72" as="geometry"/>
                </mxCell>
                <mxCell id="BVa3IJ_TPYBYKUTRfkue-1" value="Captor&lt;br&gt;画像取得する" style="whiteSpace=wrap;html=1;" vertex="1" parent="1">
                    <mxGeometry x="240" y="360" width="120" height="72" as="geometry"/>
                </mxCell>
                <mxCell id="BVa3IJ_TPYBYKUTRfkue-2" value="Inferencer&lt;br&gt;AI処理する" style="whiteSpace=wrap;html=1;" vertex="1" parent="1">
                    <mxGeometry x="240" y="480" width="120" height="72" as="geometry"/>
                </mxCell>
                <mxCell id="BVa3IJ_TPYBYKUTRfkue-3" value="Controller&lt;br&gt;モータ制御する" style="whiteSpace=wrap;html=1;" vertex="1" parent="1">
                    <mxGeometry x="240" y="600" width="120" height="72" as="geometry"/>
                </mxCell>
                <mxCell id="v3HYLjl3j5u4OknyyOl0-1" value="DataBaseAPI&lt;br&gt;ファイル操作する" style="whiteSpace=wrap;html=1;" vertex="1" parent="1">
                    <mxGeometry x="426" y="360" width="120" height="72" as="geometry"/>
                </mxCell>
                <mxCell id="v3HYLjl3j5u4OknyyOl0-2" value="" style="shape=trapezoid;perimeter=trapezoidPerimeter;whiteSpace=wrap;html=1;fixedSize=1;" vertex="1" parent="1">
                    <mxGeometry x="240" y="240" width="120" height="60" as="geometry"/>
                </mxCell>
                <mxCell id="v3HYLjl3j5u4OknyyOl0-3" value="Start IO" style="whiteSpace=wrap;html=1;" vertex="1" parent="1">
                    <mxGeometry x="240" y="144" width="120" height="60" as="geometry"/>
                </mxCell>
                <mxCell id="v3HYLjl3j5u4OknyyOl0-4" value="" style="shape=trapezoid;perimeter=trapezoidPerimeter;whiteSpace=wrap;html=1;fixedSize=1;rotation=-180;" vertex="1" parent="1">
                    <mxGeometry x="234" y="732" width="120" height="60" as="geometry"/>
                </mxCell>
                <mxCell id="-4FnLEYG4q4dIlAEOyTR-3" value="OkatronSatus" style="whiteSpace=wrap;html=1;" vertex="1" parent="1">
                    <mxGeometry x="642" y="24" width="120" height="72" as="geometry"/>
                </mxCell>
                <mxCell id="-4FnLEYG4q4dIlAEOyTR-5" value="OkatronMode" style="swimlane;fontStyle=0;childLayout=stackLayout;horizontal=1;startSize=26;fillColor=none;horizontalStack=0;resizeParent=1;resizeParentMax=0;resizeLast=0;collapsible=1;marginBottom=0;html=1;" vertex="1" parent="1">
                    <mxGeometry x="648" y="150" width="140" height="104" as="geometry"/>
                </mxCell>
                <mxCell id="-4FnLEYG4q4dIlAEOyTR-6" value="OperationMode" style="text;strokeColor=none;fillColor=none;align=left;verticalAlign=top;spacingLeft=4;spacingRight=4;overflow=hidden;rotatable=0;points=[[0,0.5],[1,0.5]];portConstraint=eastwest;whiteSpace=wrap;html=1;" vertex="1" parent="-4FnLEYG4q4dIlAEOyTR-5">
                    <mxGeometry y="26" width="140" height="26" as="geometry"/>
                </mxCell>
                <mxCell id="-4FnLEYG4q4dIlAEOyTR-7" value="SettingMode" style="text;strokeColor=none;fillColor=none;align=left;verticalAlign=top;spacingLeft=4;spacingRight=4;overflow=hidden;rotatable=0;points=[[0,0.5],[1,0.5]];portConstraint=eastwest;whiteSpace=wrap;html=1;" vertex="1" parent="-4FnLEYG4q4dIlAEOyTR-5">
                    <mxGeometry y="52" width="140" height="26" as="geometry"/>
                </mxCell>
                <mxCell id="-4FnLEYG4q4dIlAEOyTR-8" value="Item 3" style="text;strokeColor=none;fillColor=none;align=left;verticalAlign=top;spacingLeft=4;spacingRight=4;overflow=hidden;rotatable=0;points=[[0,0.5],[1,0.5]];portConstraint=eastwest;whiteSpace=wrap;html=1;" vertex="1" parent="-4FnLEYG4q4dIlAEOyTR-5">
                    <mxGeometry y="78" width="140" height="26" as="geometry"/>
                </mxCell>
                <mxCell id="-4FnLEYG4q4dIlAEOyTR-9" value="OkatronState" style="swimlane;fontStyle=0;childLayout=stackLayout;horizontal=1;startSize=26;fillColor=none;horizontalStack=0;resizeParent=1;resizeParentMax=0;resizeLast=0;collapsible=1;marginBottom=0;html=1;" vertex="1" parent="1">
                    <mxGeometry x="840" y="144" width="140" height="104" as="geometry"/>
                </mxCell>
                <mxCell id="-4FnLEYG4q4dIlAEOyTR-10" value="Idle" style="text;strokeColor=none;fillColor=none;align=left;verticalAlign=top;spacingLeft=4;spacingRight=4;overflow=hidden;rotatable=0;points=[[0,0.5],[1,0.5]];portConstraint=eastwest;whiteSpace=wrap;html=1;" vertex="1" parent="-4FnLEYG4q4dIlAEOyTR-9">
                    <mxGeometry y="26" width="140" height="26" as="geometry"/>
                </mxCell>
                <mxCell id="-4FnLEYG4q4dIlAEOyTR-11" value="Working" style="text;strokeColor=none;fillColor=none;align=left;verticalAlign=top;spacingLeft=4;spacingRight=4;overflow=hidden;rotatable=0;points=[[0,0.5],[1,0.5]];portConstraint=eastwest;whiteSpace=wrap;html=1;" vertex="1" parent="-4FnLEYG4q4dIlAEOyTR-9">
                    <mxGeometry y="52" width="140" height="26" as="geometry"/>
                </mxCell>
                <mxCell id="-4FnLEYG4q4dIlAEOyTR-12" value="Item 3" style="text;strokeColor=none;fillColor=none;align=left;verticalAlign=top;spacingLeft=4;spacingRight=4;overflow=hidden;rotatable=0;points=[[0,0.5],[1,0.5]];portConstraint=eastwest;whiteSpace=wrap;html=1;" vertex="1" parent="-4FnLEYG4q4dIlAEOyTR-9">
                    <mxGeometry y="78" width="140" height="26" as="geometry"/>
                </mxCell>
            </root>
        </mxGraphModel>
    </diagram>
</mxfile>